<svg width="357" height="321" viewBox="0 0 357 321" fill="none" xmlns="http://www.w3.org/2000/svg">
<g filter="url(#filter0_d_0_1)">
<path d="M351.425 96.4293C369.623 297.192 225.052 313 179.367 313C133.682 313 4 204.895 4 161.242C4 117.59 102.248 0 147.933 0C275.322 0 351.425 52.7765 351.425 96.4293Z" fill="#1D1D1D"/>
</g>
<g filter="url(#filter1_d_0_1)">
<path d="M78.8 117.3V187H69.7V117.3H78.8ZM121.009 131.2C127.676 131.2 133.076 133.233 137.209 137.3C141.343 141.3 143.409 147.1 143.409 154.7V187H134.409V156C134.409 150.533 133.043 146.367 130.309 143.5C127.576 140.567 123.843 139.1 119.109 139.1C114.309 139.1 110.476 140.6 107.609 143.6C104.809 146.6 103.409 150.967 103.409 156.7V187H94.3094V132.2H103.409V140C105.209 137.2 107.643 135.033 110.709 133.5C113.843 131.967 117.276 131.2 121.009 131.2ZM154.874 159.5C154.874 153.833 156.008 148.9 158.274 144.7C160.541 140.433 163.674 137.133 167.674 134.8C171.741 132.467 176.374 131.3 181.574 131.3C188.308 131.3 193.841 132.933 198.174 136.2C202.574 139.467 205.474 144 206.874 149.8H197.074C196.141 146.467 194.308 143.833 191.574 141.9C188.908 139.967 185.574 139 181.574 139C176.374 139 172.174 140.8 168.974 144.4C165.774 147.933 164.174 152.967 164.174 159.5C164.174 166.1 165.774 171.2 168.974 174.8C172.174 178.4 176.374 180.2 181.574 180.2C185.574 180.2 188.908 179.267 191.574 177.4C194.241 175.533 196.074 172.867 197.074 169.4H206.874C205.408 175 202.474 179.5 198.074 182.9C193.674 186.233 188.174 187.9 181.574 187.9C176.374 187.9 171.741 186.733 167.674 184.4C163.674 182.067 160.541 178.767 158.274 174.5C156.008 170.233 154.874 165.233 154.874 159.5ZM242.916 187.9C237.783 187.9 233.116 186.733 228.916 184.4C224.783 182.067 221.516 178.767 219.116 174.5C216.783 170.167 215.616 165.167 215.616 159.5C215.616 153.9 216.816 148.967 219.216 144.7C221.683 140.367 225.016 137.067 229.216 134.8C233.416 132.467 238.116 131.3 243.316 131.3C248.516 131.3 253.216 132.467 257.416 134.8C261.616 137.067 264.916 140.333 267.316 144.6C269.783 148.867 271.016 153.833 271.016 159.5C271.016 165.167 269.75 170.167 267.216 174.5C264.75 178.767 261.383 182.067 257.116 184.4C252.85 186.733 248.116 187.9 242.916 187.9ZM242.916 179.9C246.183 179.9 249.25 179.133 252.116 177.6C254.983 176.067 257.283 173.767 259.016 170.7C260.816 167.633 261.716 163.9 261.716 159.5C261.716 155.1 260.85 151.367 259.116 148.3C257.383 145.233 255.116 142.967 252.316 141.5C249.516 139.967 246.483 139.2 243.216 139.2C239.883 139.2 236.816 139.967 234.016 141.5C231.283 142.967 229.083 145.233 227.416 148.3C225.75 151.367 224.916 155.1 224.916 159.5C224.916 163.967 225.716 167.733 227.316 170.8C228.983 173.867 231.183 176.167 233.916 177.7C236.65 179.167 239.65 179.9 242.916 179.9ZM292.081 141.1C293.681 137.967 295.948 135.533 298.881 133.8C301.881 132.067 305.515 131.2 309.781 131.2V140.6H307.381C297.181 140.6 292.081 146.133 292.081 157.2V187H282.981V132.2H292.081V141.1Z" fill="#383636"/>
<path d="M78.8 117.3H88.8V107.3H78.8V117.3ZM78.8 187V197H88.8V187H78.8ZM69.7 187H59.7V197H69.7V187ZM69.7 117.3V107.3H59.7V117.3H69.7ZM68.8 117.3V187H88.8V117.3H68.8ZM78.8 177H69.7V197H78.8V177ZM79.7 187V117.3H59.7V187H79.7ZM69.7 127.3H78.8V107.3H69.7V127.3ZM137.209 137.3L130.196 144.428L130.225 144.457L130.255 144.486L137.209 137.3ZM143.409 187V197H153.409V187H143.409ZM134.409 187H124.409V197H134.409V187ZM130.309 143.5L122.993 150.317L123.032 150.359L123.072 150.401L130.309 143.5ZM107.609 143.6L100.379 136.691L100.339 136.734L100.299 136.777L107.609 143.6ZM103.409 187V197H113.409V187H103.409ZM94.3094 187H84.3094V197H94.3094V187ZM94.3094 132.2V122.2H84.3094V132.2H94.3094ZM103.409 132.2H113.409V122.2H103.409V132.2ZM103.409 140H93.4094V174.048L111.821 145.408L103.409 140ZM110.709 133.5L106.314 124.518L106.275 124.537L106.237 124.556L110.709 133.5ZM121.009 141.2C125.477 141.2 128.216 142.48 130.196 144.428L144.223 130.172C137.936 123.987 129.875 121.2 121.009 121.2V141.2ZM130.255 144.486C131.874 146.053 133.409 148.902 133.409 154.7H153.409C153.409 145.298 150.811 136.547 144.164 130.114L130.255 144.486ZM133.409 154.7V187H153.409V154.7H133.409ZM143.409 177H134.409V197H143.409V177ZM144.409 187V156H124.409V187H144.409ZM144.409 156C144.409 148.953 142.635 141.936 137.547 136.599L123.072 150.401C123.45 150.797 124.409 152.114 124.409 156H144.409ZM137.625 136.683C132.659 131.352 126.072 129.1 119.109 129.1V149.1C121.613 149.1 122.494 149.781 122.993 150.317L137.625 136.683ZM119.109 129.1C112.045 129.1 105.433 131.403 100.379 136.691L114.839 150.509C115.519 149.797 116.573 149.1 119.109 149.1V129.1ZM100.299 136.777C95.1861 142.255 93.4094 149.445 93.4094 156.7H113.409C113.409 152.488 114.433 150.945 114.92 150.423L100.299 136.777ZM93.4094 156.7V187H113.409V156.7H93.4094ZM103.409 177H94.3094V197H103.409V177ZM104.309 187V132.2H84.3094V187H104.309ZM94.3094 142.2H103.409V122.2H94.3094V142.2ZM93.4094 132.2V140H113.409V132.2H93.4094ZM111.821 145.408C112.619 144.166 113.671 143.199 115.182 142.444L106.237 124.556C101.614 126.867 97.7994 130.234 94.9976 134.592L111.821 145.408ZM115.105 142.482C116.775 141.665 118.69 141.2 121.009 141.2V121.2C115.862 121.2 110.911 122.268 106.314 124.518L115.105 142.482ZM158.274 144.7L167.074 149.449L167.09 149.42L167.105 149.392L158.274 144.7ZM167.674 134.8L162.698 126.126L162.666 126.144L162.636 126.162L167.674 134.8ZM198.174 136.2L192.155 144.185L192.184 144.207L192.213 144.229L198.174 136.2ZM206.874 149.8V159.8H219.575L216.595 147.454L206.874 149.8ZM197.074 149.8L187.445 152.496L189.49 159.8H197.074V149.8ZM191.574 141.9L185.705 149.996L185.752 150.03L185.8 150.064L191.574 141.9ZM168.974 144.4L176.386 151.113L176.417 151.078L176.448 151.044L168.974 144.4ZM168.974 174.8L176.448 168.156L176.448 168.156L168.974 174.8ZM191.574 177.4L197.309 185.592L197.309 185.592L191.574 177.4ZM197.074 169.4V159.4H189.551L187.466 166.628L197.074 169.4ZM206.874 169.4L216.548 171.934L219.831 159.4H206.874V169.4ZM198.074 182.9L204.113 190.871L204.151 190.842L204.189 190.813L198.074 182.9ZM167.674 184.4L162.636 193.038L162.666 193.056L162.698 193.074L167.674 184.4ZM158.274 174.5L149.443 179.192L149.443 179.192L158.274 174.5ZM164.874 159.5C164.874 155.181 165.73 151.94 167.074 149.449L149.474 139.951C146.285 145.86 144.874 152.485 144.874 159.5H164.874ZM167.105 149.392C168.539 146.693 170.391 144.792 172.713 143.438L162.636 126.162C156.958 129.474 152.543 134.174 149.443 140.008L167.105 149.392ZM172.651 143.474C175.042 142.102 177.925 141.3 181.574 141.3V121.3C174.823 121.3 168.44 122.832 162.698 126.126L172.651 143.474ZM181.574 141.3C186.668 141.3 189.938 142.514 192.155 144.185L204.194 128.215C197.744 123.353 189.947 121.3 181.574 121.3V141.3ZM192.213 144.229C194.562 145.973 196.25 148.406 197.153 152.146L216.595 147.454C214.698 139.594 210.587 132.961 204.135 128.171L192.213 144.229ZM206.874 139.8H197.074V159.8H206.874V139.8ZM206.704 147.104C205.174 141.641 202.025 137.043 197.349 133.736L185.8 150.064C186.59 150.624 187.108 151.293 187.445 152.496L206.704 147.104ZM197.444 133.804C192.731 130.387 187.221 129 181.574 129V149C183.927 149 185.084 149.546 185.705 149.996L197.444 133.804ZM181.574 129C173.774 129 166.761 131.837 161.5 137.756L176.448 151.044C177.587 149.763 178.975 149 181.574 149V129ZM161.562 137.687C156.165 143.647 154.174 151.412 154.174 159.5H174.174C174.174 154.521 175.384 152.22 176.386 151.113L161.562 137.687ZM154.174 159.5C154.174 167.637 156.155 175.43 161.5 181.444L176.448 168.156C175.393 166.97 174.174 164.563 174.174 159.5H154.174ZM161.5 181.444C166.761 187.363 173.774 190.2 181.574 190.2V170.2C178.975 170.2 177.587 169.437 176.448 168.156L161.5 181.444ZM181.574 190.2C187.15 190.2 192.61 188.882 197.309 185.592L185.84 169.208C185.205 169.652 183.998 170.2 181.574 170.2V190.2ZM197.309 185.592C202.053 182.271 205.122 177.582 206.682 172.172L187.466 166.628C187.027 168.152 186.428 168.796 185.84 169.208L197.309 185.592ZM197.074 179.4H206.874V159.4H197.074V179.4ZM197.2 166.866C196.269 170.424 194.536 172.996 191.96 174.987L204.189 190.813C210.412 186.004 214.546 179.576 216.548 171.934L197.2 166.866ZM192.036 174.929C189.694 176.703 186.434 177.9 181.574 177.9V197.9C189.915 197.9 197.654 195.764 204.113 190.871L192.036 174.929ZM181.574 177.9C177.925 177.9 175.042 177.098 172.651 175.726L162.698 193.074C168.44 196.368 174.823 197.9 181.574 197.9V177.9ZM172.713 175.762C170.391 174.408 168.539 172.507 167.105 169.808L149.443 179.192C152.543 185.026 156.958 189.726 162.636 193.038L172.713 175.762ZM167.105 169.808C165.737 167.234 164.874 163.902 164.874 159.5H144.874C144.874 166.565 146.278 173.233 149.443 179.192L167.105 169.808ZM228.916 184.4L224 193.108L224.03 193.125L224.06 193.142L228.916 184.4ZM219.116 174.5L210.312 179.241L210.355 179.322L210.401 179.403L219.116 174.5ZM219.216 144.7L210.526 139.753L210.513 139.775L210.501 139.797L219.216 144.7ZM229.216 134.8L233.966 143.6L234.019 143.571L234.073 143.542L229.216 134.8ZM257.416 134.8L252.56 143.542L252.613 143.571L252.667 143.6L257.416 134.8ZM267.316 144.6L258.601 149.503L258.63 149.554L258.659 149.605L267.316 144.6ZM267.216 174.5L258.583 169.453L258.571 169.474L258.559 169.495L267.216 174.5ZM257.116 184.4L261.915 193.174L261.915 193.174L257.116 184.4ZM259.016 170.7L250.392 165.638L250.351 165.708L250.311 165.779L259.016 170.7ZM252.316 141.5L247.513 150.271L247.594 150.315L247.676 150.358L252.316 141.5ZM234.016 141.5L238.745 150.312L238.782 150.291L238.82 150.271L234.016 141.5ZM227.416 148.3L236.203 153.075L236.203 153.075L227.416 148.3ZM227.316 170.8L218.451 175.426L218.49 175.501L218.53 175.575L227.316 170.8ZM233.916 177.7L229.024 186.421L229.106 186.467L229.188 186.512L233.916 177.7ZM242.916 177.9C239.363 177.9 236.386 177.11 233.773 175.658L224.06 193.142C229.847 196.357 236.204 197.9 242.916 197.9V177.9ZM233.832 175.692C231.341 174.285 229.366 172.325 227.832 169.597L210.401 179.403C213.667 185.209 218.225 189.848 224 193.108L233.832 175.692ZM227.921 169.759C226.484 167.09 225.616 163.764 225.616 159.5H205.616C205.616 166.569 207.082 173.243 210.312 179.241L227.921 169.759ZM225.616 159.5C225.616 155.367 226.489 152.168 227.932 149.603L210.501 139.797C207.144 145.765 205.616 152.433 205.616 159.5H225.616ZM227.907 149.647C229.49 146.865 231.49 144.936 233.966 143.6L224.467 126C218.543 129.197 213.876 133.868 210.526 139.753L227.907 149.647ZM234.073 143.542C236.666 142.101 239.672 141.3 243.316 141.3V121.3C236.561 121.3 230.166 122.833 224.36 126.058L234.073 143.542ZM243.316 141.3C246.961 141.3 249.966 142.101 252.56 143.542L262.273 126.058C256.466 122.833 250.072 121.3 243.316 121.3V141.3ZM252.667 143.6C255.158 144.945 257.103 146.839 258.601 149.503L276.032 139.697C272.73 133.827 268.074 129.189 262.166 126L252.667 143.6ZM258.659 149.605C260.122 152.135 261.016 155.324 261.016 159.5H281.016C281.016 152.343 279.445 145.599 275.974 139.595L258.659 149.605ZM261.016 159.5C261.016 163.626 260.111 166.841 258.583 169.453L275.849 179.547C279.389 173.493 281.016 166.707 281.016 159.5H261.016ZM258.559 169.495C256.996 172.198 254.955 174.184 252.318 175.626L261.915 193.174C267.811 189.949 272.503 185.335 275.874 179.505L258.559 169.495ZM252.318 175.626C249.624 177.099 246.559 177.9 242.916 177.9V197.9C249.674 197.9 256.075 196.367 261.915 193.174L252.318 175.626ZM242.916 189.9C247.82 189.9 252.508 188.731 256.833 186.418L247.4 168.782C245.991 169.535 244.546 169.9 242.916 169.9V189.9ZM256.833 186.418C261.512 183.915 265.137 180.195 267.722 175.621L250.311 165.779C249.43 167.339 248.454 168.218 247.4 168.782L256.833 186.418ZM267.641 175.762C270.532 170.835 271.716 165.26 271.716 159.5H251.716C251.716 162.54 251.1 164.431 250.392 165.638L267.641 175.762ZM271.716 159.5C271.716 153.799 270.59 148.277 267.822 143.379L250.411 153.221C251.109 154.456 251.716 156.401 251.716 159.5H271.716ZM267.822 143.379C265.253 138.835 261.654 135.102 256.956 132.642L247.676 150.358C248.579 150.831 249.513 151.632 250.411 153.221L267.822 143.379ZM257.12 132.729C252.812 130.37 248.121 129.2 243.216 129.2V149.2C244.845 149.2 246.221 149.563 247.513 150.271L257.12 132.729ZM243.216 129.2C238.281 129.2 233.552 130.353 229.213 132.729L238.82 150.271C240.081 149.58 241.485 149.2 243.216 149.2V129.2ZM229.288 132.688C224.628 135.189 221.107 138.967 218.63 143.525L236.203 153.075C237.059 151.499 237.938 150.745 238.745 150.312L229.288 132.688ZM218.63 143.525C215.986 148.391 214.916 153.858 214.916 159.5H234.916C234.916 156.342 235.514 154.343 236.203 153.075L218.63 143.525ZM214.916 159.5C214.916 165.122 215.92 170.576 218.451 175.426L236.182 166.174C235.513 164.891 234.916 162.811 234.916 159.5H214.916ZM218.53 175.575C220.991 180.104 224.464 183.863 229.024 186.421L238.809 168.979C237.902 168.47 236.975 167.63 236.103 166.025L218.53 175.575ZM229.188 186.512C233.453 188.8 238.09 189.9 242.916 189.9V169.9C241.209 169.9 239.846 169.533 238.645 168.888L229.188 186.512ZM292.081 141.1H282.081L300.987 145.648L292.081 141.1ZM298.881 133.8L293.878 125.141L293.836 125.166L293.794 125.191L298.881 133.8ZM309.781 131.2H319.781V121.2H309.781V131.2ZM309.781 140.6V150.6H319.781V140.6H309.781ZM292.081 187V197H302.081V187H292.081ZM282.981 187H272.981V197H282.981V187ZM282.981 132.2V122.2H272.981V132.2H282.981ZM292.081 132.2H302.081V122.2H292.081V132.2ZM300.987 145.648C301.755 144.145 302.723 143.146 303.969 142.409L293.794 125.191C289.173 127.921 285.608 131.788 283.175 136.552L300.987 145.648ZM303.884 142.459C305.048 141.786 306.867 141.2 309.781 141.2V121.2C304.162 121.2 298.714 122.347 293.878 125.141L303.884 142.459ZM299.781 131.2V140.6H319.781V131.2H299.781ZM309.781 130.6H307.381V150.6H309.781V130.6ZM307.381 130.6C300.521 130.6 293.598 132.499 288.553 137.973C283.65 143.293 282.081 150.318 282.081 157.2H302.081C302.081 153.015 303.063 151.741 303.259 151.527C303.314 151.468 304.042 150.6 307.381 150.6V130.6ZM282.081 157.2V187H302.081V157.2H282.081ZM292.081 177H282.981V197H292.081V177ZM292.981 187V132.2H272.981V187H292.981ZM282.981 142.2H292.081V122.2H282.981V142.2ZM282.081 132.2V141.1H302.081V132.2H282.081Z" fill="white"/>
</g>
<defs>
<filter id="filter0_d_0_1" x="0" y="0" width="357" height="321" filterUnits="userSpaceOnUse" color-interpolation-filters="sRGB">
<feFlood flood-opacity="0" result="BackgroundImageFix"/>
<feColorMatrix in="SourceAlpha" type="matrix" values="0 0 0 0 0 0 0 0 0 0 0 0 0 0 0 0 0 0 127 0" result="hardAlpha"/>
<feOffset dy="4"/>
<feGaussianBlur stdDeviation="2"/>
<feComposite in2="hardAlpha" operator="out"/>
<feColorMatrix type="matrix" values="0 0 0 0 0 0 0 0 0 0 0 0 0 0 0 0 0 0 0.25 0"/>
<feBlend mode="normal" in2="BackgroundImageFix" result="effect1_dropShadow_0_1"/>
<feBlend mode="normal" in="SourceGraphic" in2="effect1_dropShadow_0_1" result="shape"/>
</filter>
<filter id="filter1_d_0_1" x="65.7" y="117.3" width="248.081" height="78.6" filterUnits="userSpaceOnUse" color-interpolation-filters="sRGB">
<feFlood flood-opacity="0" result="BackgroundImageFix"/>
<feColorMatrix in="SourceAlpha" type="matrix" values="0 0 0 0 0 0 0 0 0 0 0 0 0 0 0 0 0 0 127 0" result="hardAlpha"/>
<feOffset dy="4"/>
<feGaussianBlur stdDeviation="2"/>
<feComposite in2="hardAlpha" operator="out"/>
<feColorMatrix type="matrix" values="0 0 0 0 0 0 0 0 0 0 0 0 0 0 0 0 0 0 0.25 0"/>
<feBlend mode="normal" in2="BackgroundImageFix" result="effect1_dropShadow_0_1"/>
<feBlend mode="normal" in="SourceGraphic" in2="effect1_dropShadow_0_1" result="shape"/>
</filter>
</defs>
</svg>
